<svg xmlns="http://www.w3.org/2000/svg" xmlns:xlink="http://www.w3.org/1999/xlink" version="1.1" width="1000" height="1000" viewBox="0 0 1000 1000" xml:space="preserve">
<desc>Created with Fabric.js 3.5.0</desc>
<defs>
</defs>
<rect x="0" y="0" width="100%" height="100%" fill="#ffffff"/>
<g transform="matrix(10.0526 0 0 10.0526 499.9986 623.6545)" id="819493">
<g style="" vector-effect="non-scaling-stroke">
		<g transform="matrix(1 0 0 1 -9.5625 -27.6665)" id="_20-World">
<polyline style="stroke: rgb(0,0,0); stroke-width: 2; stroke-dasharray: none; stroke-linecap: butt; stroke-dashoffset: 0; stroke-linejoin: round; stroke-miterlimit: 4; is-custom-font: none; font-file-url: none; fill: none; fill-rule: nonzero; opacity: 1;" points="-2.1875,3.3335 -5.6875,-3.3335 -2.1875,-3.3335 5.6875,3.3335 "/>
</g>
		<g transform="matrix(1 0 0 1 -10 -19.5)" id="_20-World">
<path style="stroke: rgb(0,0,0); stroke-width: 2; stroke-dasharray: none; stroke-linecap: butt; stroke-dashoffset: 0; stroke-linejoin: round; stroke-miterlimit: 4; is-custom-font: none; font-file-url: none; fill: none; fill-rule: nonzero; opacity: 1;" transform=" translate(-22, -12.5)" d="M 36.875 7 C 31.625 7 8 8.5 8 8.5 L 3.625 4 H 1 l 1.263 6.493 A 3.387 3.387 0 0 0 5.715 13 H 22.788 l -6.534 8 h 4.667 l 11.2 -8 H 39.5 C 43 13 43 10.75 43 10.75 S 42.125 7 36.875 7 Z" stroke-linecap="round"/>
</g>
		<g transform="matrix(1 0 0 1 8 -23.5)" id="_20-World">
<polyline style="stroke: rgb(0,0,0); stroke-width: 2; stroke-dasharray: none; stroke-linecap: butt; stroke-dashoffset: 0; stroke-linejoin: round; stroke-miterlimit: 4; is-custom-font: none; font-file-url: none; fill: none; fill-rule: nonzero; opacity: 1;" points="-3,-1.5 -3,1.5 3,1.5 "/>
</g>
		<g transform="matrix(1 0 0 1 10.5 3.5)" id="_20-World">
<polygon style="stroke: rgb(0,0,0); stroke-width: 2; stroke-dasharray: none; stroke-linecap: butt; stroke-dashoffset: 0; stroke-linejoin: round; stroke-miterlimit: 4; is-custom-font: none; font-file-url: none; fill: none; fill-rule: nonzero; opacity: 1;" points="-7.5,-2.5 -2.5,-2.5 -2.5,-4.5 -5.5,-4.5 -7.5,-8.5 -9.5,-8.5 -13.5,-4.5 -14.5,-4.5 -14.5,-7.5 -9.5,-12.5 -7.5,-12.5 -4.5,-13.5 -5.5,-15.5 -9.5,-15.5 -7.5,-18.5 -2.5,-18.5 -1.5,-16.5 2.5,-16.5 6.5,-17.5 10.5,-17.5 10.5,-16.5 15.5,-12.5 16.5,-9.5 15.5,-8.5 15.5,-7.5 16.5,-6.5 16.5,-3.5 14.5,-3.5 14.5,-1.5 13.5,1.5 12.5,1.5 14.5,3.5 14.5,4.5 12.5,4.5 12.5,8.5 10.5,8.5 10.5,4.5 9.5,0.5 6.5,3.5 5.5,3.5 5.5,-0.5 1.5,-1.5 2.5,0.5 2.5,3.5 -0.5,3.5 -1.5,0.5 -3.5,0.5 -3.5,6.5 1.5,6.5 1.5,8.5 -1.5,10.5 -0.5,12.5 -0.5,13.5 -3.5,18.5 -7.5,18.5 -8.5,13.5 -8.5,10.5 -9.5,8.5 -9.5,7.5 -14.5,7.5 -16.5,5.5 -16.5,1.5 -10.5,-3.5 -8.5,-3.5 -7.5,-2.5 "/>
</g>
		<g transform="matrix(1 0 0 1 23 19.5)" id="_20-World">
<polyline style="stroke: rgb(0,0,0); stroke-width: 2; stroke-dasharray: none; stroke-linecap: butt; stroke-dashoffset: 0; stroke-linejoin: round; stroke-miterlimit: 4; is-custom-font: none; font-file-url: none; fill: none; fill-rule: nonzero; opacity: 1;" points="3,-2.5 0,-4.5 -3,-2.5 -3,4.5 "/>
</g>
		<g transform="matrix(1 0 0 1 -19.5 1)" id="_20-World">
<polyline style="stroke: rgb(0,0,0); stroke-width: 2; stroke-dasharray: none; stroke-linecap: butt; stroke-dashoffset: 0; stroke-linejoin: round; stroke-miterlimit: 4; is-custom-font: none; font-file-url: none; fill: none; fill-rule: nonzero; opacity: 1;" points="4.5,-10 4.5,-8 1.5,-7 1.5,-5 0.5,-4 -0.5,-3 -0.5,-1 -3.5,-1 -3.5,1 -1.5,1 -0.5,4 0.5,4 3.5,4 5.5,7 8.5,10 7.5,12 7.5,14 4.5,18 2.5,18 1.5,12 -0.5,11 -0.5,7 -3.5,3 -6.5,1 -6.5,-8 -8.5,-8 -8.5,-10 -4.5,-14 0.3,-18 "/>
</g>
		<g transform="matrix(1 0 0 1 -0.0005 -0.0079)" id="_20-World">
<path style="stroke: rgb(0,0,0); stroke-width: 2; stroke-dasharray: none; stroke-linecap: butt; stroke-dashoffset: 0; stroke-linejoin: round; stroke-miterlimit: 4; is-custom-font: none; font-file-url: none; fill: none; fill-rule: nonzero; opacity: 1;" transform=" translate(-31.9995, -31.992)" d="M 25 1.794 A 31 31 0 1 1 5.443 16" stroke-linecap="round"/>
</g>
</g>
</g>
<g transform="matrix(1 0 0 1 500 166.3092)" style="" id="552838">
		
<path xml:space="preserve" font-family="Abel" font-size="228" font-style="normal" font-weight="normal" style="stroke: none; stroke-width: 1; stroke-dasharray: none; stroke-linecap: butt; stroke-dashoffset: 0; stroke-linejoin: miter; stroke-miterlimit: 4; is-custom-font: none; font-file-url: none; fill: rgb(220,112,10); fill-rule: nonzero; opacity: 1; white-space: pre;" d="M-89.62 34.66L-89.62 34.66Q-89.62 42.79-92.68 49.91Q-95.74 57.04-101.09 62.38Q-106.43 67.73-113.55 70.79Q-120.68 73.85-128.81 73.85L-128.81 73.85L-140.16 73.85Q-148.29 73.85-155.47 70.79Q-162.65 67.73-167.99 62.38Q-173.34 57.04-176.40 49.91Q-179.46 42.79-179.46 34.66L-179.46 34.66L-179.46-51.06Q-179.46-59.19-176.40-66.31Q-173.34-73.44-167.99-78.78Q-162.65-84.12-155.47-87.19Q-148.29-90.25-140.16-90.25L-140.16-90.25L-128.81-90.25Q-120.68-90.25-113.55-87.19Q-106.43-84.12-101.09-78.78Q-95.74-73.44-92.68-66.31Q-89.62-59.19-89.62-51.06L-89.62-51.06L-89.62-44.60L-103.98-42.38L-103.98-51.06Q-103.98-56.40-105.98-61.02Q-107.99-65.64-111.44-69.09Q-114.89-72.55-119.51-74.55Q-124.13-76.55-129.47-76.55L-129.47-76.55L-139.49-76.55Q-144.84-76.55-149.46-74.55Q-154.08-72.55-157.59-69.09Q-161.09-65.64-163.10-61.02Q-165.10-56.40-165.10-51.06L-165.10-51.06L-165.10 34.66Q-165.10 40.01-163.10 44.63Q-161.09 49.25-157.59 52.75Q-154.08 56.26-149.46 58.26Q-144.84 60.27-139.49 60.27L-139.49 60.27L-129.47 60.27Q-124.13 60.27-119.51 58.26Q-114.89 56.26-111.44 52.75Q-107.99 49.25-105.98 44.63Q-103.98 40.01-103.98 34.66L-103.98 34.66L-103.98 25.98L-89.62 28.32L-89.62 34.66ZM91.18-88.02L48.98 71.62L41.53 71.62L10.46-48.50L10.02-54.73L9.35-48.50L-21.49 71.62L-28.95 71.62L-71.36-88.02L-57.00-88.02L-25.72 33.33L-25.27 39.23L-24.83 33.33L5.90-88.02L13.92-88.02L44.64 33.33L45.09 39.23L45.64 33.33L76.82-88.02L91.18-88.02ZM190.82-74.33L152.74-74.33L152.74 71.62L138.38 71.62L138.38-74.33L100.31-74.33L100.31-88.02L190.82-88.02L190.82-74.33Z"/></g>
</svg>