<svg xmlns="http://www.w3.org/2000/svg" xmlns:xlink="http://www.w3.org/1999/xlink" version="1.1" width="1000" height="1000" viewBox="0 0 1000 1000" xml:space="preserve">
<desc>Created with Fabric.js 3.5.0</desc>
<defs>
</defs>
<rect x="0" y="0" width="100%" height="100%" fill="#ffffff"/>
<g transform="matrix(6.2444 0 0 6.2444 501.7921 501.7921)" id="819493">
<g style="" vector-effect="non-scaling-stroke">
		<g transform="matrix(1 0 0 1 -9.5625 -27.6665)" id="_20-World">
<polyline style="stroke: rgb(0,0,0); stroke-width: 2; stroke-dasharray: none; stroke-linecap: butt; stroke-dashoffset: 0; stroke-linejoin: round; stroke-miterlimit: 4; is-custom-font: none; font-file-url: none; fill: none; fill-rule: nonzero; opacity: 1;" points="-2.1875,3.3335 -5.6875,-3.3335 -2.1875,-3.3335 5.6875,3.3335 "/>
</g>
		<g transform="matrix(1 0 0 1 -10 -19.5)" id="_20-World">
<path style="stroke: rgb(0,0,0); stroke-width: 2; stroke-dasharray: none; stroke-linecap: butt; stroke-dashoffset: 0; stroke-linejoin: round; stroke-miterlimit: 4; is-custom-font: none; font-file-url: none; fill: none; fill-rule: nonzero; opacity: 1;" transform=" translate(-22, -12.5)" d="M 36.875 7 C 31.625 7 8 8.5 8 8.5 L 3.625 4 H 1 l 1.263 6.493 A 3.387 3.387 0 0 0 5.715 13 H 22.788 l -6.534 8 h 4.667 l 11.2 -8 H 39.5 C 43 13 43 10.75 43 10.75 S 42.125 7 36.875 7 Z" stroke-linecap="round"/>
</g>
		<g transform="matrix(1 0 0 1 8 -23.5)" id="_20-World">
<polyline style="stroke: rgb(0,0,0); stroke-width: 2; stroke-dasharray: none; stroke-linecap: butt; stroke-dashoffset: 0; stroke-linejoin: round; stroke-miterlimit: 4; is-custom-font: none; font-file-url: none; fill: none; fill-rule: nonzero; opacity: 1;" points="-3,-1.5 -3,1.5 3,1.5 "/>
</g>
		<g transform="matrix(1 0 0 1 10.5 3.5)" id="_20-World">
<polygon style="stroke: rgb(0,0,0); stroke-width: 2; stroke-dasharray: none; stroke-linecap: butt; stroke-dashoffset: 0; stroke-linejoin: round; stroke-miterlimit: 4; is-custom-font: none; font-file-url: none; fill: none; fill-rule: nonzero; opacity: 1;" points="-7.5,-2.5 -2.5,-2.5 -2.5,-4.5 -5.5,-4.5 -7.5,-8.5 -9.5,-8.5 -13.5,-4.5 -14.5,-4.5 -14.5,-7.5 -9.5,-12.5 -7.5,-12.5 -4.5,-13.5 -5.5,-15.5 -9.5,-15.5 -7.5,-18.5 -2.5,-18.5 -1.5,-16.5 2.5,-16.5 6.5,-17.5 10.5,-17.5 10.5,-16.5 15.5,-12.5 16.5,-9.5 15.5,-8.5 15.5,-7.5 16.5,-6.5 16.5,-3.5 14.5,-3.5 14.5,-1.5 13.5,1.5 12.5,1.5 14.5,3.5 14.5,4.5 12.5,4.5 12.5,8.5 10.5,8.5 10.5,4.5 9.5,0.5 6.5,3.5 5.5,3.5 5.5,-0.5 1.5,-1.5 2.5,0.5 2.5,3.5 -0.5,3.5 -1.5,0.5 -3.5,0.5 -3.5,6.5 1.5,6.5 1.5,8.5 -1.5,10.5 -0.5,12.5 -0.5,13.5 -3.5,18.5 -7.5,18.5 -8.5,13.5 -8.5,10.5 -9.5,8.5 -9.5,7.5 -14.5,7.5 -16.5,5.5 -16.5,1.5 -10.5,-3.5 -8.5,-3.5 -7.5,-2.5 "/>
</g>
		<g transform="matrix(1 0 0 1 23 19.5)" id="_20-World">
<polyline style="stroke: rgb(0,0,0); stroke-width: 2; stroke-dasharray: none; stroke-linecap: butt; stroke-dashoffset: 0; stroke-linejoin: round; stroke-miterlimit: 4; is-custom-font: none; font-file-url: none; fill: none; fill-rule: nonzero; opacity: 1;" points="3,-2.5 0,-4.5 -3,-2.5 -3,4.5 "/>
</g>
		<g transform="matrix(1 0 0 1 -19.5 1)" id="_20-World">
<polyline style="stroke: rgb(0,0,0); stroke-width: 2; stroke-dasharray: none; stroke-linecap: butt; stroke-dashoffset: 0; stroke-linejoin: round; stroke-miterlimit: 4; is-custom-font: none; font-file-url: none; fill: none; fill-rule: nonzero; opacity: 1;" points="4.5,-10 4.5,-8 1.5,-7 1.5,-5 0.5,-4 -0.5,-3 -0.5,-1 -3.5,-1 -3.5,1 -1.5,1 -0.5,4 0.5,4 3.5,4 5.5,7 8.5,10 7.5,12 7.5,14 4.5,18 2.5,18 1.5,12 -0.5,11 -0.5,7 -3.5,3 -6.5,1 -6.5,-8 -8.5,-8 -8.5,-10 -4.5,-14 0.3,-18 "/>
</g>
		<g transform="matrix(1 0 0 1 -0.0005 -0.0079)" id="_20-World">
<path style="stroke: rgb(0,0,0); stroke-width: 2; stroke-dasharray: none; stroke-linecap: butt; stroke-dashoffset: 0; stroke-linejoin: round; stroke-miterlimit: 4; is-custom-font: none; font-file-url: none; fill: none; fill-rule: nonzero; opacity: 1;" transform=" translate(-31.9995, -31.992)" d="M 25 1.794 A 31 31 0 1 1 5.443 16" stroke-linecap="round"/>
</g>
</g>
</g>
<g transform="matrix(1 0 0 1 500 213.5)" style="" id="552838">
		
<path xml:space="preserve" font-family="Abel" font-size="200" font-style="normal" font-weight="normal" style="stroke: none; stroke-width: 1; stroke-dasharray: none; stroke-linecap: butt; stroke-dashoffset: 0; stroke-linejoin: miter; stroke-miterlimit: 4; is-custom-font: none; font-file-url: none; fill: rgb(220,112,10); fill-rule: nonzero; opacity: 1; white-space: pre;" d="M-78.61 30.41L-78.61 30.41Q-78.61 37.54-81.30 43.79Q-83.98 50.04-88.67 54.72Q-93.36 59.41-99.61 62.10Q-105.86 64.78-112.99 64.78L-112.99 64.78L-122.95 64.78Q-130.08 64.78-136.38 62.10Q-142.68 59.41-147.36 54.72Q-152.05 50.04-154.74 43.79Q-157.42 37.54-157.42 30.41L-157.42 30.41L-157.42-44.79Q-157.42-51.92-154.74-58.17Q-152.05-64.42-147.36-69.11Q-142.68-73.79-136.38-76.48Q-130.08-79.16-122.95-79.16L-122.95-79.16L-112.99-79.16Q-105.86-79.16-99.61-76.48Q-93.36-73.79-88.67-69.11Q-83.98-64.42-81.30-58.17Q-78.61-51.92-78.61-44.79L-78.61-44.79L-78.61-39.13L-91.21-37.17L-91.21-44.79Q-91.21-49.48-92.97-53.53Q-94.73-57.58-97.75-60.61Q-100.78-63.64-104.83-65.39Q-108.89-67.15-113.57-67.15L-113.57-67.15L-122.36-67.15Q-127.05-67.15-131.10-65.39Q-135.16-63.64-138.23-60.61Q-141.31-57.58-143.07-53.53Q-144.82-49.48-144.82-44.79L-144.82-44.79L-144.82 30.41Q-144.82 35.09-143.07 39.15Q-141.31 43.20-138.23 46.28Q-135.16 49.35-131.10 51.11Q-127.05 52.87-122.36 52.87L-122.36 52.87L-113.57 52.87Q-108.89 52.87-104.83 51.11Q-100.78 49.35-97.75 46.28Q-94.73 43.20-92.97 39.15Q-91.21 35.09-91.21 30.41L-91.21 30.41L-91.21 22.79L-78.61 24.84L-78.61 30.41ZM79.98-77.21L42.97 62.83L36.43 62.83L9.18-42.54L8.79-48.01L8.20-42.54L-18.85 62.83L-25.39 62.83L-62.60-77.21L-50.00-77.21L-22.56 29.23L-22.17 34.41L-21.78 29.23L5.18-77.21L12.21-77.21L39.16 29.23L39.55 34.41L40.04 29.23L67.38-77.21L79.98-77.21ZM167.38-65.20L133.98-65.20L133.98 62.83L121.39 62.83L121.39-65.20L87.99-65.20L87.99-77.21L167.38-77.21L167.38-65.20Z"/></g>
<g transform="matrix(1 0 0 1 517.9211 779.254)" style="" id="546088">
		
<path xml:space="preserve" font-family="Lato" font-size="56" font-style="normal" font-weight="normal" style="stroke: none; stroke-width: 1; stroke-dasharray: none; stroke-linecap: butt; stroke-dashoffset: 0; stroke-linejoin: miter; stroke-miterlimit: 4; is-custom-font: none; font-file-url: none; fill: rgb(220,112,10); fill-rule: nonzero; opacity: 1; white-space: pre;" d="M-161.75-19.17L-161.75-19.17Q-161.30-19.17-160.94-18.81L-160.94-18.81L-158.81-16.48Q-161.27-13.63-164.79-12.03Q-168.30-10.44-173.26-10.44L-173.26-10.44Q-177.60-10.44-181.13-11.93Q-184.65-13.43-187.15-16.13Q-189.64-18.84-191.01-22.62Q-192.38-26.40-192.38-30.93L-192.38-30.93Q-192.38-35.47-190.91-39.25Q-189.44-43.03-186.78-45.74Q-184.12-48.46-180.41-49.96Q-176.70-51.46-172.22-51.46L-172.22-51.46Q-167.80-51.46-164.59-50.08Q-161.39-48.71-158.89-46.36L-158.89-46.36L-160.66-43.87Q-160.85-43.59-161.11-43.41Q-161.36-43.22-161.83-43.22L-161.83-43.22Q-162.20-43.22-162.60-43.49Q-163.01-43.76-163.57-44.15Q-164.13-44.54-164.89-44.99Q-165.64-45.44-166.68-45.83Q-167.71-46.22-169.09-46.49Q-170.46-46.75-172.25-46.75L-172.25-46.75Q-175.47-46.75-178.14-45.65Q-180.82-44.54-182.75-42.50Q-184.68-40.45-185.76-37.51Q-186.84-34.57-186.84-30.93L-186.84-30.93Q-186.84-27.18-185.76-24.24Q-184.68-21.30-182.82-19.27Q-180.96-17.24-178.41-16.18Q-175.86-15.11-172.92-15.11L-172.92-15.11Q-171.13-15.11-169.70-15.32Q-168.27-15.53-167.06-15.98Q-165.84-16.43-164.79-17.11Q-163.74-17.80-162.67-18.75L-162.67-18.75Q-162.20-19.17-161.75-19.17ZM-141.23-39.70L-141.23-39.70Q-138.68-39.70-136.52-38.84Q-134.37-37.99-132.80-36.38Q-131.23-34.77-130.35-32.40Q-129.47-30.04-129.47-27.01L-129.47-27.01Q-129.47-25.84-129.72-25.44Q-129.97-25.05-130.67-25.05L-130.67-25.05L-149.54-25.05Q-149.49-22.36-148.81-20.38Q-148.14-18.39-146.97-17.06Q-145.79-15.73-144.17-15.07Q-142.54-14.41-140.53-14.41L-140.53-14.41Q-138.65-14.41-137.29-14.85Q-135.93-15.28-134.95-15.78Q-133.97-16.29-133.32-16.72Q-132.66-17.16-132.18-17.16L-132.18-17.16Q-131.57-17.16-131.23-16.68L-131.23-16.68L-129.83-14.86Q-130.75-13.74-132.04-12.91Q-133.33-12.09-134.80-11.56Q-136.27-11.02-137.84-10.76Q-139.41-10.49-140.95-10.49L-140.95-10.49Q-143.89-10.49-146.36-11.49Q-148.84-12.48-150.65-14.40Q-152.45-16.32-153.46-19.14Q-154.47-21.97-154.47-25.64L-154.47-25.64Q-154.47-28.61-153.56-31.18Q-152.65-33.76-150.94-35.65Q-149.23-37.54-146.77-38.62Q-144.31-39.70-141.23-39.70ZM-141.11-36.03L-141.11-36.03Q-144.73-36.03-146.80-33.94Q-148.87-31.86-149.37-28.16L-149.37-28.16L-133.95-28.16Q-133.95-29.90-134.42-31.34Q-134.90-32.78-135.82-33.83Q-136.75-34.88-138.08-35.45Q-139.41-36.03-141.11-36.03ZM-118.13-10.88L-123.11-10.88L-123.11-39.25L-120.25-39.25Q-119.44-39.25-119.13-38.94Q-118.83-38.63-118.71-37.88L-118.71-37.88L-118.38-33.45Q-116.92-36.42-114.78-38.09Q-112.64-39.75-109.75-39.75L-109.75-39.75Q-108.58-39.75-107.63-39.49Q-106.67-39.22-105.86-38.74L-105.86-38.74L-106.51-35.02Q-106.70-34.32-107.37-34.32L-107.37-34.32Q-107.77-34.32-108.58-34.59Q-109.39-34.85-110.85-34.85L-110.85-34.85Q-113.45-34.85-115.20-33.34Q-116.95-31.83-118.13-28.94L-118.13-28.94L-118.13-10.88ZM-91.95-10.44L-91.95-10.44Q-95.31-10.44-97.11-12.31Q-98.92-14.19-98.92-17.72L-98.92-17.72L-98.92-35.08L-102.33-35.08Q-102.78-35.08-103.09-35.34Q-103.40-35.61-103.40-36.17L-103.40-36.17L-103.40-38.16L-98.75-38.74L-97.60-47.51Q-97.55-47.93-97.24-48.19Q-96.93-48.46-96.45-48.46L-96.45-48.46L-93.93-48.46L-93.93-38.69L-85.81-38.69L-85.81-35.08L-93.93-35.08L-93.93-18.05Q-93.93-16.26-93.07-15.39Q-92.20-14.52-90.83-14.52L-90.83-14.52Q-90.04-14.52-89.47-14.73Q-88.89-14.94-88.47-15.20Q-88.05-15.45-87.76-15.66Q-87.47-15.87-87.24-15.87L-87.24-15.87Q-86.85-15.87-86.54-15.39L-86.54-15.39L-85.09-13.01Q-86.37-11.81-88.19-11.12Q-90.01-10.44-91.95-10.44ZM-79.09-39.25L-74.11-39.25L-74.11-10.88L-79.09-10.88L-79.09-39.25ZM-72.99-48.15L-72.99-48.15Q-72.99-47.42-73.28-46.79Q-73.58-46.16-74.07-45.67Q-74.56-45.18-75.20-44.90Q-75.85-44.62-76.57-44.62L-76.57-44.62Q-77.30-44.62-77.93-44.90Q-78.56-45.18-79.05-45.67Q-79.54-46.16-79.82-46.79Q-80.10-47.42-80.10-48.15L-80.10-48.15Q-80.10-48.88-79.82-49.54Q-79.54-50.20-79.05-50.69Q-78.56-51.18-77.93-51.46Q-77.30-51.74-76.57-51.74L-76.57-51.74Q-75.85-51.74-75.20-51.46Q-74.56-51.18-74.07-50.69Q-73.58-50.20-73.28-49.54Q-72.99-48.88-72.99-48.15ZM-59.19-10.88L-64.20-10.88L-64.20-34.99L-67.33-35.36Q-67.92-35.50-68.30-35.79Q-68.68-36.08-68.68-36.64L-68.68-36.64L-68.68-38.69L-64.20-38.69L-64.20-41.43Q-64.20-43.87-63.51-45.76Q-62.83-47.65-61.55-48.95Q-60.28-50.25-58.49-50.92Q-56.69-51.60-54.45-51.60L-54.45-51.60Q-52.55-51.60-50.93-51.04L-50.93-51.04L-51.04-48.54Q-51.07-47.98-51.51-47.87Q-51.96-47.76-52.77-47.76L-52.77-47.76L-53.64-47.76Q-54.93-47.76-55.98-47.42Q-57.03-47.09-57.79-46.33Q-58.54-45.58-58.95-44.34Q-59.35-43.11-59.35-41.29L-59.35-41.29L-59.35-38.69L-51.15-38.69L-51.15-35.08L-59.19-35.08L-59.19-10.88ZM-45.89-39.25L-40.90-39.25L-40.90-10.88L-45.89-10.88L-45.89-39.25ZM-39.78-48.15L-39.78-48.15Q-39.78-47.42-40.08-46.79Q-40.37-46.16-40.86-45.67Q-41.35-45.18-41.99-44.90Q-42.64-44.62-43.37-44.62L-43.37-44.62Q-44.09-44.62-44.72-44.90Q-45.35-45.18-45.84-45.67Q-46.33-46.16-46.61-46.79Q-46.89-47.42-46.89-48.15L-46.89-48.15Q-46.89-48.88-46.61-49.54Q-46.33-50.20-45.84-50.69Q-45.35-51.18-44.72-51.46Q-44.09-51.74-43.37-51.74L-43.37-51.74Q-42.64-51.74-41.99-51.46Q-41.35-51.18-40.86-50.69Q-40.37-50.20-40.08-49.54Q-39.78-48.88-39.78-48.15ZM-20.88-39.70L-20.88-39.70Q-18.33-39.70-16.18-38.84Q-14.02-37.99-12.45-36.38Q-10.89-34.77-10.00-32.40Q-9.12-30.04-9.12-27.01L-9.12-27.01Q-9.12-25.84-9.37-25.44Q-9.63-25.05-10.33-25.05L-10.33-25.05L-29.20-25.05Q-29.14-22.36-28.47-20.38Q-27.80-18.39-26.62-17.06Q-25.45-15.73-23.82-15.07Q-22.20-14.41-20.18-14.41L-20.18-14.41Q-18.31-14.41-16.95-14.85Q-15.59-15.28-14.61-15.78Q-13.63-16.29-12.97-16.72Q-12.31-17.16-11.84-17.16L-11.84-17.16Q-11.22-17.16-10.89-16.68L-10.89-16.68L-9.49-14.86Q-10.41-13.74-11.70-12.91Q-12.99-12.09-14.46-11.56Q-15.93-11.02-17.49-10.76Q-19.06-10.49-20.60-10.49L-20.60-10.49Q-23.54-10.49-26.02-11.49Q-28.50-12.48-30.30-14.40Q-32.11-16.32-33.12-19.14Q-34.13-21.97-34.13-25.64L-34.13-25.64Q-34.13-28.61-33.22-31.18Q-32.31-33.76-30.60-35.65Q-28.89-37.54-26.43-38.62Q-23.96-39.70-20.88-39.70ZM-20.77-36.03L-20.77-36.03Q-24.38-36.03-26.45-33.94Q-28.53-31.86-29.03-28.16L-29.03-28.16L-13.60-28.16Q-13.60-29.90-14.08-31.34Q-14.55-32.78-15.48-33.83Q-16.40-34.88-17.73-35.45Q-19.06-36.03-20.77-36.03ZM20.17-10.88L17.20-10.88Q16.13-10.88 15.85-11.92L15.85-11.92L15.41-15.36Q13.59-13.15 11.25-11.82Q8.91-10.49 5.89-10.49L5.89-10.49Q3.45-10.49 1.46-11.43Q-0.53-12.37-1.93-14.19Q-3.33-16.01-4.08-18.72Q-4.84-21.44-4.84-24.97L-4.84-24.97Q-4.84-28.10-4.00-30.81Q-3.16-33.51-1.58-35.50Q0.01-37.48 2.27-38.62Q4.54-39.75 7.43-39.75L7.43-39.75Q10.03-39.75 11.88-38.87Q13.73-37.99 15.18-36.39L15.18-36.39L15.18-52.13L20.17-52.13L20.17-10.88ZM7.54-14.52L7.54-14.52Q9.97-14.52 11.81-15.64Q13.64-16.76 15.18-18.81L15.18-18.81L15.18-32.53Q13.81-34.38 12.17-35.12Q10.53-35.86 8.55-35.86L8.55-35.86Q4.57-35.86 2.44-33.03Q0.31-30.20 0.31-24.97L0.31-24.97Q0.31-22.20 0.79-20.22Q1.27-18.25 2.19-16.97Q3.11-15.70 4.46-15.11Q5.80-14.52 7.54-14.52ZM48.17-10.88L35.65-51.01L40.16-51.01Q40.89-51.01 41.36-50.64Q41.84-50.28 42.01-49.72L42.01-49.72L50.29-21.83Q50.52-21.08 50.70-20.21Q50.88-19.34 51.05-18.39L51.05-18.39Q51.25-19.34 51.44-20.22Q51.64-21.10 51.89-21.83L51.89-21.83L61.33-49.72Q61.49-50.20 61.98-50.60Q62.47-51.01 63.17-51.01L63.17-51.01L64.74-51.01Q65.47-51.01 65.93-50.64Q66.39-50.28 66.59-49.72L66.59-49.72L75.97-21.83Q76.47-20.38 76.87-18.50L76.87-18.50Q77.03-19.42 77.17-20.26Q77.31-21.10 77.54-21.83L77.54-21.83L85.85-49.72Q85.99-50.22 86.48-50.62Q86.97-51.01 87.67-51.01L87.67-51.01L91.90-51.01L79.39-10.88L74.51-10.88L64.35-41.49Q64.04-42.36 63.79-43.50L63.79-43.50Q63.65-42.94 63.52-42.43Q63.40-41.91 63.26-41.49L63.26-41.49L53.04-10.88L48.17-10.88ZM106.99-39.70L106.99-39.70Q110.10-39.70 112.61-38.66Q115.11-37.62 116.86-35.72Q118.61-33.82 119.55-31.11Q120.49-28.41 120.49-25.08L120.49-25.08Q120.49-21.72 119.55-19.03Q118.61-16.34 116.86-14.44Q115.11-12.54 112.61-11.51Q110.10-10.49 106.99-10.49L106.99-10.49Q103.89-10.49 101.38-11.51Q98.87-12.54 97.11-14.44Q95.35-16.34 94.39-19.03Q93.44-21.72 93.44-25.08L93.44-25.08Q93.44-28.41 94.39-31.11Q95.35-33.82 97.11-35.72Q98.87-37.62 101.38-38.66Q103.89-39.70 106.99-39.70ZM106.99-14.38L106.99-14.38Q111.19-14.38 113.27-17.20Q115.34-20.01 115.34-25.05L115.34-25.05Q115.34-30.12 113.27-32.95Q111.19-35.78 106.99-35.78L106.99-35.78Q104.87-35.78 103.30-35.05Q101.73-34.32 100.68-32.95Q99.63-31.58 99.11-29.57Q98.59-27.57 98.59-25.05L98.59-25.05Q98.59-22.53 99.11-20.54Q99.63-18.56 100.68-17.20Q101.73-15.84 103.30-15.11Q104.87-14.38 106.99-14.38ZM131.63-10.88L126.65-10.88L126.65-39.25L129.51-39.25Q130.32-39.25 130.63-38.94Q130.93-38.63 131.05-37.88L131.05-37.88L131.38-33.45Q132.84-36.42 134.98-38.09Q137.12-39.75 140.01-39.75L140.01-39.75Q141.18-39.75 142.13-39.49Q143.09-39.22 143.90-38.74L143.90-38.74L143.25-35.02Q143.06-34.32 142.39-34.32L142.39-34.32Q141.99-34.32 141.18-34.59Q140.37-34.85 138.91-34.85L138.91-34.85Q136.31-34.85 134.56-33.34Q132.81-31.83 131.63-28.94L131.63-28.94L131.63-10.88ZM149.78-52.13L154.76-52.13L154.76-10.88L149.78-10.88L149.78-52.13ZM186.49-10.88L183.52-10.88Q182.45-10.88 182.17-11.92L182.17-11.92L181.73-15.36Q179.91-13.15 177.57-11.82Q175.23-10.49 172.21-10.49L172.21-10.49Q169.77-10.49 167.78-11.43Q165.79-12.37 164.39-14.19Q162.99-16.01 162.24-18.72Q161.48-21.44 161.48-24.97L161.48-24.97Q161.48-28.10 162.32-30.81Q163.16-33.51 164.74-35.50Q166.33-37.48 168.59-38.62Q170.86-39.75 173.75-39.75L173.75-39.75Q176.35-39.75 178.20-38.87Q180.05-37.99 181.50-36.39L181.50-36.39L181.50-52.13L186.49-52.13L186.49-10.88ZM173.86-14.52L173.86-14.52Q176.29-14.52 178.13-15.64Q179.96-16.76 181.50-18.81L181.50-18.81L181.50-32.53Q180.13-34.38 178.49-35.12Q176.85-35.86 174.87-35.86L174.87-35.86Q170.89-35.86 168.76-33.03Q166.63-30.20 166.63-24.97L166.63-24.97Q166.63-22.20 167.11-20.22Q167.59-18.25 168.51-16.97Q169.43-15.70 170.78-15.11Q172.12-14.52 173.86-14.52Z"/><path xml:space="preserve" font-family="Lato" font-size="56" font-style="normal" font-weight="normal" style="stroke: none; stroke-width: 1; stroke-dasharray: none; stroke-linecap: butt; stroke-dashoffset: 0; stroke-linejoin: miter; stroke-miterlimit: 4; is-custom-font: none; font-file-url: none; fill: rgb(220,112,10); fill-rule: nonzero; opacity: 1; white-space: pre;" d="M-105.41 5.94L-73.99 5.94L-73.99 10.51L-86.96 10.51L-86.96 46.07L-92.39 46.07L-92.39 10.51L-105.41 10.51L-105.41 5.94ZM-68.56 46.07L-73.55 46.07L-73.55 17.70L-70.69 17.70Q-69.88 17.70-69.57 18.01Q-69.26 18.32-69.15 19.08L-69.15 19.08L-68.81 23.50Q-67.36 20.53-65.22 18.87Q-63.07 17.20-60.19 17.20L-60.19 17.20Q-59.01 17.20-58.06 17.47Q-57.11 17.73-56.30 18.21L-56.30 18.21L-56.94 21.93Q-57.14 22.63-57.81 22.63L-57.81 22.63Q-58.20 22.63-59.01 22.37Q-59.83 22.10-61.28 22.10L-61.28 22.10Q-63.89 22.10-65.64 23.61Q-67.39 25.12-68.56 28.01L-68.56 28.01L-68.56 46.07ZM-31.21 27.92L-31.21 46.07L-33.42 46.07Q-34.15 46.07-34.60 45.84Q-35.05 45.62-35.19 44.89L-35.19 44.89L-35.75 42.26Q-36.87 43.27-37.93 44.07Q-38.99 44.86-40.17 45.41Q-41.35 45.96-42.68 46.24Q-44.01 46.52-45.63 46.52L-45.63 46.52Q-47.28 46.52-48.72 46.05Q-50.17 45.59-51.23 44.67Q-52.29 43.74-52.92 42.33Q-53.55 40.92-53.55 38.98L-53.55 38.98Q-53.55 37.30-52.63 35.75Q-51.71 34.20-49.65 32.99Q-47.59 31.79-44.26 31.02Q-40.93 30.25-36.11 30.14L-36.11 30.14L-36.11 27.92Q-36.11 24.62-37.52 22.93Q-38.94 21.23-41.71 21.23L-41.71 21.23Q-43.53 21.23-44.78 21.69Q-46.02 22.16-46.93 22.73Q-47.84 23.30-48.50 23.77Q-49.16 24.23-49.80 24.23L-49.80 24.23Q-50.31 24.23-50.68 23.96Q-51.06 23.70-51.29 23.30L-51.29 23.30L-52.18 21.71Q-49.83 19.44-47.11 18.32Q-44.40 17.20-41.09 17.20L-41.09 17.20Q-38.71 17.20-36.87 17.98Q-35.02 18.77-33.76 20.17Q-32.50 21.57-31.85 23.56Q-31.21 25.54-31.21 27.92L-31.21 27.92ZM-44.15 43.02L-44.15 43.02Q-42.83 43.02-41.74 42.75Q-40.65 42.48-39.68 41.99Q-38.71 41.50-37.83 40.80Q-36.95 40.10-36.11 39.21L-36.11 39.21L-36.11 33.30Q-39.55 33.41-41.96 33.85Q-44.37 34.28-45.88 34.98Q-47.39 35.68-48.08 36.63Q-48.77 37.58-48.77 38.76L-48.77 38.76Q-48.77 39.88-48.40 40.69Q-48.04 41.50-47.42 42.02Q-46.81 42.54-45.97 42.78Q-45.13 43.02-44.15 43.02ZM-16.57 46.07L-28.13 17.70L-24.04 17.70Q-23.45 17.70-23.06 18.01Q-22.67 18.32-22.50 18.74L-22.50 18.74L-15.31 37.00Q-14.91 38.00-14.69 39.01Q-14.47 40.02-14.27 41.00L-14.27 41.00Q-14.05 40.02-13.79 39.01Q-13.54 38.00-13.15 37.00L-13.15 37.00L-5.87 18.74Q-5.70 18.29-5.32 18.00Q-4.95 17.70-4.39 17.70L-4.39 17.70L-0.49 17.70L-12.06 46.07L-16.57 46.07ZM14.63 17.26L14.63 17.26Q17.17 17.26 19.33 18.11Q21.49 18.96 23.05 20.57Q24.62 22.18 25.50 24.55Q26.39 26.92 26.39 29.94L26.39 29.94Q26.39 31.12 26.13 31.51Q25.88 31.90 25.18 31.90L25.18 31.90L6.31 31.90Q6.37 34.59 7.04 36.58Q7.71 38.56 8.89 39.89Q10.06 41.22 11.69 41.88Q13.31 42.54 15.33 42.54L15.33 42.54Q17.20 42.54 18.56 42.11Q19.92 41.67 20.90 41.17Q21.88 40.66 22.54 40.23Q23.19 39.80 23.67 39.80L23.67 39.80Q24.29 39.80 24.62 40.27L24.62 40.27L26.02 42.09Q25.10 43.21 23.81 44.04Q22.52 44.86 21.05 45.40Q19.58 45.93 18.01 46.19Q16.45 46.46 14.91 46.46L14.91 46.46Q11.97 46.46 9.49 45.47Q7.01 44.47 5.20 42.55Q3.40 40.64 2.39 37.81Q1.38 34.98 1.38 31.31L1.38 31.31Q1.38 28.34 2.29 25.77Q3.20 23.19 4.91 21.30Q6.62 19.41 9.08 18.33Q11.55 17.26 14.63 17.26ZM14.74 20.92L14.74 20.92Q11.13 20.92 9.05 23.01Q6.98 25.10 6.48 28.79L6.48 28.79L21.91 28.79Q21.91 27.06 21.43 25.61Q20.95 24.17 20.03 23.12Q19.11 22.07 17.78 21.50Q16.45 20.92 14.74 20.92ZM33.30 4.82L38.29 4.82L38.29 46.07L33.30 46.07L33.30 4.82ZM58.31 17.26L58.31 17.26Q60.85 17.26 63.01 18.11Q65.17 18.96 66.73 20.57Q68.30 22.18 69.18 24.55Q70.07 26.92 70.07 29.94L70.07 29.94Q70.07 31.12 69.81 31.51Q69.56 31.90 68.86 31.90L68.86 31.90L49.99 31.90Q50.05 34.59 50.72 36.58Q51.39 38.56 52.57 39.89Q53.74 41.22 55.37 41.88Q56.99 42.54 59.01 42.54L59.01 42.54Q60.88 42.54 62.24 42.11Q63.60 41.67 64.58 41.17Q65.56 40.66 66.22 40.23Q66.87 39.80 67.35 39.80L67.35 39.80Q67.97 39.80 68.30 40.27L68.30 40.27L69.70 42.09Q68.78 43.21 67.49 44.04Q66.20 44.86 64.73 45.40Q63.26 45.93 61.69 46.19Q60.13 46.46 58.59 46.46L58.59 46.46Q55.65 46.46 53.17 45.47Q50.69 44.47 48.88 42.55Q47.08 40.64 46.07 37.81Q45.06 34.98 45.06 31.31L45.06 31.31Q45.06 28.34 45.97 25.77Q46.88 23.19 48.59 21.30Q50.30 19.41 52.76 18.33Q55.23 17.26 58.31 17.26ZM58.42 20.92L58.42 20.92Q54.81 20.92 52.73 23.01Q50.66 25.10 50.16 28.79L50.16 28.79L65.59 28.79Q65.59 27.06 65.11 25.61Q64.63 24.17 63.71 23.12Q62.79 22.07 61.46 21.50Q60.13 20.92 58.42 20.92ZM81.41 46.07L76.42 46.07L76.42 17.70L79.28 17.70Q80.09 17.70 80.40 18.01Q80.71 18.32 80.82 19.08L80.82 19.08L81.15 23.50Q82.61 20.53 84.75 18.87Q86.89 17.20 89.78 17.20L89.78 17.20Q90.95 17.20 91.91 17.47Q92.86 17.73 93.67 18.21L93.67 18.21L93.03 21.93Q92.83 22.63 92.16 22.63L92.16 22.63Q91.77 22.63 90.95 22.37Q90.14 22.10 88.69 22.10L88.69 22.10Q86.08 22.10 84.33 23.61Q82.58 25.12 81.41 28.01L81.41 28.01L81.41 46.07Z"/></g>
</svg>